<svg width="193" height="195" viewBox="0 0 193 195" fill="none" xmlns="http://www.w3.org/2000/svg">
<g id="&#208;&#155;&#208;&#190;&#208;&#179;&#208;&#190;" opacity="0.1">
<path id="Vector" d="M0.314469 89.7884C1.51311 61.1009 16.9356 33.1326 47.3811 14.1141C67.6781 1.48846 90.2126 -2.50701 113.706 1.48846C151.423 7.88121 181.949 35.1303 191.937 72.8476C193.376 78.1216 191.857 81.4778 187.862 82.5166C184.186 83.4755 181.389 81.7974 180.191 77.6421C177.314 67.3338 173.398 57.505 166.926 48.8747C146.788 22.1051 120.019 9.55931 86.7765 13.8744C52.9748 18.1895 29.0819 37.2879 17.9744 69.2517C7.26659 99.9369 12.9402 128.784 34.9152 153.636C48.1802 168.579 65.0411 177.289 84.7787 180.406C89.5733 181.205 92.1304 184.241 91.4112 188.157C90.7719 191.673 87.0961 193.671 82.6212 192.951C55.5319 188.556 33.8764 175.132 17.9744 152.997C6.78713 137.334 0.154651 118.955 0.314469 89.7884Z" fill="#E8CE11"/>
<path id="Vector_2" d="M41.3879 139.492C41.1482 132.86 44.824 128.465 50.0181 125.268C60.6461 118.716 71.3539 112.403 82.0618 106.01C84.539 104.572 86.9363 103.852 89.4934 105.69C91.8108 107.368 91.6509 109.846 91.1715 112.243C88.8541 125.188 86.6166 138.134 84.1395 151.079C82.6212 159.07 73.5914 165.303 65.8402 162.826C57.2899 160.109 50.1779 154.755 44.0249 148.202C41.7875 145.645 41.5477 142.529 41.3879 139.492Z" fill="#FCE505"/>
<path id="Vector_3" d="M60.2465 35.3701C67.9178 35.3701 73.8311 39.5254 76.2284 45.6784C80.7833 57.4251 85.418 69.1718 90.0528 80.8386C91.0916 83.4756 91.7308 85.793 89.3336 88.1103C87.0961 90.3478 84.7787 89.5487 82.3814 88.7496C70.9544 84.7541 59.6073 80.7587 48.1003 76.8431C34.7554 72.3682 31.3992 59.0233 41.0683 48.9547C44.1847 45.6784 47.3811 42.562 50.5775 39.3656C53.5341 36.4888 57.1301 35.5299 60.2465 35.3701Z" fill="#FCE505"/>
<path id="Vector_4" d="M21.89 97.6193C20.8512 91.2265 22.3695 84.5141 29.4814 80.2789C33.397 77.8817 37.6322 77.1625 42.1071 78.8406C54.573 83.4753 66.9589 88.1101 79.4248 92.8247C81.8221 93.7037 83.9796 95.1421 84.1395 98.0987C84.3792 101.055 82.3015 102.174 80.144 103.373C68.4772 109.606 56.9702 116.158 45.0637 122.072C35.5545 126.786 24.4471 120.553 22.6891 110.085C22.1297 106.329 22.1297 102.654 21.89 97.6193Z" fill="#FCE505"/>
<path id="Vector_5" d="M97.8839 22.5846C101.879 23.0641 107.073 23.3837 112.188 24.1828C123.295 26.0207 128.809 37.8473 123.135 47.5963C116.663 58.7037 110.03 69.6513 103.478 80.6788C102.119 82.9162 100.681 84.9939 97.6442 84.6742C94.6875 84.3546 93.5688 82.1171 92.7697 79.56C88.6144 67.0942 84.2194 54.7881 80.3038 42.2423C77.0275 31.934 85.3381 22.1851 97.8839 22.5846Z" fill="#FCE505"/>
<path id="Vector_6" d="M165.887 68.053C165.727 75.4846 160.293 82.0371 152.862 83.4755C139.836 85.9527 126.731 88.2701 113.706 90.7473C111.309 91.2267 109.551 90.3477 108.192 88.5098C106.834 86.7518 106.914 84.9139 108.112 82.9161C114.905 71.4092 121.697 59.8223 128.329 48.2354C133.523 39.1258 147.907 37.9271 154.38 46.6373C157.496 50.7925 160.533 54.9478 163.33 59.2629C165.008 61.9799 165.967 64.9365 165.887 68.053Z" fill="#FCE505"/>
<path id="Vector_7" d="M102.039 168.659C104.836 173.294 108.032 176.97 109.79 181.365C111.708 186.159 110.19 191.593 106.434 193.671C100.841 196.867 94.7674 193.511 94.4478 187.038C94.2879 180.166 98.2834 174.892 102.039 168.659Z" fill="#FCE505"/>
</g>
</svg>
